<svg version="1.1" id="Layer_1" xmlns="http://www.w3.org/2000/svg" xmlns:xlink="http://www.w3.org/1999/xlink" x="0px" y="0px"
	 width="100%" viewBox="0 0 1024 1024" enable-background="new 0 0 1024 1024" xml:space="preserve">
<path fill="#000000" opacity="1.000000" stroke="none" 
	d="
M219.775833,802.179321 
	C203.927002,782.834167 200.541306,760.758789 203.278976,737.023132 
	C206.288712,710.928772 217.837051,688.174805 230.242645,665.642151 
	C250.077850,629.614868 270.667236,593.992493 289.228210,557.276123 
	C303.951294,528.151733 317.810425,498.622101 329.598999,468.159332 
	C336.084900,451.399200 342.198578,434.517853 347.217560,417.247345 
	C354.785004,391.207581 361.017700,364.911560 363.801819,337.862244 
	C367.109863,305.722443 366.969543,273.742279 360.076416,242.023483 
	C359.297211,238.438049 360.636200,236.692337 363.918060,235.805603 
	C369.217499,234.373734 374.574036,233.089798 379.755280,231.304596 
	C383.694550,229.947311 385.498505,231.178467 386.818939,234.906433 
	C393.499878,253.768646 398.461792,273.015625 401.381409,292.847656 
	C406.655365,328.672211 404.298340,364.155090 397.858673,399.584595 
	C389.964661,443.015625 376.225769,484.614288 359.136353,525.188477 
	C345.488525,557.591614 329.843628,589.039307 313.173645,619.973145 
	C298.327728,647.522095 282.951233,674.787048 268.274719,702.424622 
	C260.540497,716.989014 253.992111,732.102356 253.288513,749.070435 
	C252.664368,764.122620 259.759491,773.891113 273.029816,780.118469 
	C286.783600,786.572571 301.502777,789.175720 316.273346,791.619263 
	C359.038239,798.693970 402.164429,798.762085 445.292542,797.558105 
	C474.398895,796.745483 503.327515,793.636169 532.116394,789.022827 
	C564.442810,783.842590 595.976990,775.823486 626.243469,763.397400 
	C650.137390,753.587585 672.920532,741.615356 694.173523,726.682129 
	C729.441406,701.901367 757.469238,670.676880 778.289246,633.130554 
	C794.336792,604.190979 803.922729,573.069214 807.903625,540.080811 
	C811.475647,510.480286 808.853699,481.371613 803.816589,452.242706 
	C798.432007,421.104004 790.304993,390.864441 775.997986,362.510376 
	C763.534790,337.810150 747.908508,315.375641 728.815430,295.295349 
	C691.817444,256.384399 647.392334,229.745316 596.203430,213.995773 
	C570.171143,205.986267 543.490051,201.246597 516.481812,198.725906 
	C496.766754,196.885925 476.922546,196.985489 457.079071,197.794312 
	C432.240387,198.806747 407.629974,201.663834 383.264343,206.257233 
	C349.339630,212.652695 316.421997,222.548279 284.501556,235.877533 
	C261.386261,245.529938 239.214157,256.890198 217.814911,269.836334 
	C215.109970,271.472778 212.268402,273.001465 209.905853,275.057678 
	C206.476990,278.041962 203.865051,277.809296 201.218292,274.172058 
	C197.496002,269.056854 193.729309,263.966370 189.777634,259.028564 
	C187.463440,256.136902 189.089172,254.591934 191.211273,252.907791 
	C206.222076,240.994965 221.926422,230.106888 238.342651,220.197037 
	C263.958130,204.733963 290.905914,192.037964 318.987488,181.902557 
	C352.538574,169.793030 387.002747,161.095474 422.458374,156.569977 
	C447.754120,153.341278 473.113129,150.992142 498.637207,151.950821 
	C545.298340,153.703445 590.968445,161.245270 634.973633,177.188477 
	C675.425171,191.844193 712.213318,212.928207 744.964905,241.046371 
	C784.505249,274.992798 814.254211,316.032013 834.347290,363.961334 
	C845.961670,391.665833 853.196106,420.717682 858.343933,450.309357 
	C861.660339,469.373352 863.289734,488.498383 863.478027,507.871246 
	C863.810303,542.066040 857.802979,575.026855 846.630615,607.225647 
	C831.376770,651.187683 807.468689,689.760742 775.487549,723.503906 
	C746.523315,754.063904 713.045471,778.489258 675.483765,797.236328 
	C643.330933,813.283813 609.489258,824.739990 574.337341,832.319214 
	C550.082764,837.548828 525.605835,841.090027 500.905334,843.488037 
	C460.371582,847.423157 419.760803,848.092163 379.116394,846.973267 
	C347.660919,846.107239 316.246033,843.947815 285.406647,837.260498 
	C260.442932,831.847351 237.354355,822.411743 219.775833,802.179321 
z"/>
<path fill="#000000" opacity="1.000000" stroke="none" 
	d="
M417.278809,592.539124 
	C408.992310,562.485840 406.410217,532.233093 408.876709,501.672607 
	C412.576141,455.835602 426.445465,413.241364 453.327209,375.682922 
	C481.051880,336.946747 517.388794,310.188751 565.508911,303.163849 
	C608.582275,296.875702 646.626892,308.614532 678.170959,339.326019 
	C703.337891,363.828735 717.538818,394.191498 725.486755,427.935944 
	C726.410889,431.859344 725.173523,433.393585 721.734802,434.433716 
	C717.275146,435.782715 712.831909,437.238007 708.505127,438.958160 
	C704.768005,440.443909 702.704590,439.436768 701.125854,435.766144 
	C695.862488,423.528503 690.064148,411.579834 682.278687,400.658691 
	C663.737488,374.649689 639.851624,356.434418 607.830688,351.079437 
	C586.794556,347.561493 566.465088,351.049866 547.115479,360.426422 
	C519.327942,373.891754 500.004120,395.709412 484.902435,421.955750 
	C473.544617,441.695404 466.837158,463.144958 462.826294,485.285004 
	C459.291565,504.796448 459.201172,524.650513 461.076141,544.498657 
	C463.242523,567.432190 469.124847,589.244141 478.972626,610.048523 
	C489.116608,631.478699 502.699432,650.276123 522.051453,664.208252 
	C557.378113,689.641113 600.695679,690.324463 638.901794,666.892883 
	C664.089722,651.445312 681.712708,629.295654 695.756653,603.872437 
	C698.249329,599.360107 700.551819,594.737305 702.793396,590.093689 
	C704.137634,587.309021 706.009949,586.621094 708.868042,587.648071 
	C713.251099,589.223022 717.661194,590.743469 722.125916,592.063599 
	C725.289795,592.999023 726.243896,594.541504 725.499084,597.933960 
	C723.485840,607.103882 720.160889,615.796875 716.337402,624.290466 
	C700.570557,659.315247 677.338745,688.118408 644.510681,708.523926 
	C617.920349,725.052185 588.641296,731.766113 557.589233,729.114868 
	C523.362549,726.192688 494.564453,711.062439 470.319824,687.102112 
	C443.704010,660.798401 426.935608,628.875244 417.278809,592.539124 
z"/>
<path fill="#000000" opacity="1.000000" stroke="none" 
	d="
M709.102295,538.857056 
	C694.428589,519.992310 696.595764,496.019958 714.451904,482.342957 
	C727.097717,472.656860 741.323669,471.749451 755.374573,478.599548 
	C768.828857,485.158813 776.021851,496.598419 776.275574,511.778625 
	C776.569641,529.364746 768.006714,542.678406 752.860779,548.862122 
	C737.989258,554.933655 721.168518,551.169800 709.102295,538.857056 
z"/>
<path fill="#000000" opacity="1.000000" stroke="none" 
	d="
M598.335571,526.340088 
	C590.183899,502.632324 604.794617,478.996155 627.017456,475.183472 
	C641.856201,472.637665 655.009033,476.515533 664.519836,488.631775 
	C674.688416,501.586090 676.114563,516.066467 668.736694,530.798828 
	C661.962219,544.326355 650.546265,551.214294 635.330994,551.305481 
	C617.811951,551.410400 604.808960,542.638550 598.335571,526.340088 
z"/>
<path fill="#000000" opacity="1.000000" stroke="none" 
	d="
M537.458923,474.907654 
	C555.225525,478.730011 566.068665,489.432373 568.899109,506.704407 
	C571.489563,522.512329 566.165344,536.195435 552.397400,545.220337 
	C539.905029,553.409058 526.353210,554.002625 513.065369,547.135193 
	C499.873260,540.317261 492.860992,529.061584 492.703857,514.136963 
	C492.438568,488.937073 509.981812,473.524994 537.458923,474.907654 
z"/>
</svg>